
        <svg xmlns="http://www.w3.org/2000/svg" xmlns:xlink="http://www.w3.org/1999/xlink" version="1.1" width="3187.5" height="845.0088982365313" viewBox="0 0 3187.5 845.0088982365313">
			
			<g transform="scale(9.375) translate(10, 10)">
				<defs id="SvgjsDefs1019"><linearGradient id="SvgjsLinearGradient1024"><stop id="SvgjsStop1025" stop-color="#8f5e25" offset="0"/><stop id="SvgjsStop1026" stop-color="#fbf4a1" offset="0.5"/><stop id="SvgjsStop1027" stop-color="#8f5e25" offset="1"/></linearGradient><linearGradient id="SvgjsLinearGradient1028"><stop id="SvgjsStop1029" stop-color="#8f5e25" offset="0"/><stop id="SvgjsStop1030" stop-color="#fbf4a1" offset="0.5"/><stop id="SvgjsStop1031" stop-color="#8f5e25" offset="1"/></linearGradient></defs><g id="SvgjsG1020" featureKey="symbolFeature-0" transform="matrix(1.3805748224258423,0,0,1.3805748224258423,-18.729439680742058,-34.239335598339)" fill="#000"><path xmlns="http://www.w3.org/2000/svg" d="M40.7,66.2c-0.2-0.8-1.4-1.4-2.9-1.8l5-19c0.2,0,0.3,0,0.5,0c5.7,0,10.3-4.6,10.3-10.3c0-5.7-4.6-10.3-10.3-10.3  c-5.7,0-10.3,4.6-10.3,10.3c0,3.7,2,7,4.9,8.8l-5.4,20.2c-2.3,0.3-4,1.1-4.3,2.1H14.5c-2.1,4.8,0,9.4,0,9.4H52c1.8-4.9,0-9.4,0-9.4  H40.7z M60.5,52.1c0-2.4-2-4.4-4.4-4.4c-2.4,0-4.4,2-4.4,4.4c0,2.4,2,4.4,4.4,4.4C58.6,56.5,60.5,54.5,60.5,52.1z M71.9,49.3  c0-2.4-2-4.4-4.4-4.4c-2.4,0-4.4,2-4.4,4.4c0,2.4,2,4.4,4.4,4.4C69.9,53.7,71.9,51.7,71.9,49.3z M83.2,46.5c0-2.4-2-4.4-4.4-4.4  c-2.4,0-4.4,2-4.4,4.4c0,2.4,2,4.4,4.4,4.4C81.2,50.8,83.2,48.9,83.2,46.5z M59,58.5c-2.4,0-4.4,2-4.4,4.4c0,2.4,2,4.4,4.4,4.4  c2.4,0,4.4-2,4.4-4.4C63.4,60.5,61.4,58.5,59,58.5z M70.3,55.7c-2.4,0-4.4,2-4.4,4.4c0,2.4,2,4.4,4.4,4.4c2.4,0,4.4-2,4.4-4.4  C74.7,57.6,72.7,55.7,70.3,55.7z M81.6,52.8c-2.4,0-4.4,2-4.4,4.4c0,2.4,2,4.4,4.4,4.4c2.4,0,4.4-2,4.4-4.4  C86,54.8,84.1,52.8,81.6,52.8z"/></g><g id="SvgjsG1021" featureKey="nameFeature-0" transform="matrix(1.7907732725143433,0,0,1.7907732725143433,118.06932251407785,-10.984995278234411)" fill="#000"><path d="M30.32 19.32 l-8 2.24 c-0.16 -0.76 -0.28 -1.32 -0.72 -2 c-1.36 -2.12 -4.24 -2.2 -4.76 -2.2 c-0.64 0 -2 0.04 -3.44 0.88 c-3.44 1.96 -3.24 6.76 -3.24 7.48 c0 1.08 0.08 2.32 0.36 3.36 c0.6 2.08 2.12 3.88 4.2 4.6 c0.52 0.16 1.16 0.36 2.36 0.36 c1.36 0 2.8 -0.32 3.88 -1.2 c0.36 -0.28 0.68 -0.64 0.92 -1.04 c0.36 -0.68 0.48 -1.56 0.52 -1.76 l-5.24 0 l0 -5.68 l12.96 0 l0 15.64 l-6.64 0 l0 -1.96 c-0.84 0.6 -1.48 1 -1.84 1.2 c-2.64 1.4 -5.8 1.52 -6.68 1.52 c-1 0 -3.4 -0.08 -5.92 -1.24 c-2.76 -1.32 -7.96 -5.2 -7.96 -13.44 c0 -1.8 0.24 -6.6 3.68 -10.6 c2.92 -3.4 7 -4.88 11.36 -4.88 c4.56 0 9.68 1.64 12.52 5.4 c1.04 1.4 1.44 2.68 1.68 3.32 z M54.879999999999995 40 l-8.12 0 l0 -1.6 c-0.32 0.24 -0.72 0.56 -1.52 0.96 c-0.88 0.44 -2.76 1.12 -5.36 1.12 c-0.52 0 -1.92 0 -3.32 -0.52 c-2.68 -1.04 -4.12 -3.36 -4.12 -6.16 c0 -1.12 0.24 -3.6 2.84 -5.36 c1.72 -1.16 3.92 -1.44 5.92 -1.72 c1.16 -0.16 2.4 -0.32 3.56 -0.56 c0.52 -0.12 1.08 -0.24 1.6 -0.4 c0 -0.08 0 -0.64 -0.12 -0.96 c-0.24 -0.84 -0.84 -1.44 -2.68 -1.44 c-0.6 0 -1 0.08 -1.2 0.12 c-1.28 0.32 -1.4 1.4 -1.52 1.84 l-7.72 0.2 c0.08 -0.44 0.2 -0.84 0.28 -1.24 c0.2 -0.8 0.64 -2.24 2.28 -3.52 s4.16 -2.16 8.64 -2.16 c3.24 0 7.64 0.52 9.24 3.88 c0.44 0.92 0.6 1.76 0.6 3.68 l0 11.28 c0 1.52 0.2 1.84 0.72 2.56 z M46.32 30.36 c-1.04 0.36 -2.08 0.68 -3.12 0.96 c-0.88 0.2 -2.12 0.48 -2.76 1.28 c-0.08 0.12 -0.36 0.48 -0.36 0.96 c0 0.64 0.52 1.6 2.04 1.6 c0.72 0 1.36 -0.24 2 -0.56 c2.32 -1.24 2.2 -3.28 2.2 -4.24 z M69.60000000000001 30.8 l-12.6 0 l0 -6.84 l12.6 0 l0 6.84 z M101.12 19.32 l-8 2.24 c-0.16 -0.76 -0.28 -1.32 -0.72 -2 c-1.36 -2.12 -4.24 -2.2 -4.76 -2.2 c-0.64 0 -2 0.04 -3.44 0.88 c-3.44 1.96 -3.24 6.76 -3.24 7.48 c0 1.08 0.08 2.32 0.36 3.36 c0.6 2.08 2.12 3.88 4.2 4.6 c0.52 0.16 1.16 0.36 2.36 0.36 c1.36 0 2.8 -0.32 3.88 -1.2 c0.36 -0.28 0.68 -0.64 0.92 -1.04 c0.36 -0.68 0.48 -1.56 0.52 -1.76 l-5.24 0 l0 -5.68 l12.96 0 l0 15.64 l-6.64 0 l0 -1.96 c-0.84 0.6 -1.48 1 -1.84 1.2 c-2.64 1.4 -5.8 1.52 -6.68 1.52 c-1 0 -3.4 -0.08 -5.92 -1.24 c-2.76 -1.32 -7.96 -5.2 -7.96 -13.44 c0 -1.8 0.24 -6.6 3.68 -10.6 c2.92 -3.4 7 -4.88 11.36 -4.88 c4.56 0 9.68 1.64 12.52 5.4 c1.04 1.4 1.44 2.68 1.68 3.32 z M112.76000000000002 19.4 l-1.56 10.28 l-4.04 0 l-1.72 -10.36 l0 -7.56 l7.32 0 l0 7.64 z M112.76000000000002 40 l-7.32 0 l0 -7.52 l7.32 0 l0 7.52 z"/></g>
			</g>
		</svg>
	